<svg width="42" height="48" viewBox="0 0 42 48" fill="none" xmlns="http://www.w3.org/2000/svg">
<path d="M39.7887 20.1232L6.78848 0.615235C4.10721 -0.96801 0 0.568366 0 4.48852V43.496C0 47.0112 3.81471 49.1287 6.78848 47.3674L39.7887 27.8697C42.7324 26.1318 42.7418 21.8574 39.7887 20.1232V20.1232ZM30.1774 26.5762L10.5263 38.1857C8.5313 39.3715 6.00003 37.926 6.00003 35.6032V12.3748C6.00003 10.0519 8.5313 8.61021 10.5263 9.79319L30.1774 21.4121C30.6261 21.6774 30.998 22.0551 31.2563 22.5078C31.5146 22.9606 31.6504 23.4729 31.6504 23.9941C31.6504 24.5154 31.5146 25.0276 31.2563 25.4804C30.998 25.9332 30.6261 26.3108 30.1774 26.5762Z" fill="white" fill-opacity="0.5"/>
<path d="M10.5263 9.7952L30.1773 21.4122C30.6261 21.6775 30.9979 22.0552 31.2562 22.508C31.5145 22.9607 31.6504 23.473 31.6504 23.9943C31.6504 24.5155 31.5145 25.0278 31.2562 25.4806C30.9979 25.9333 30.6261 26.311 30.1773 26.5763L10.5263 38.1858C8.53126 39.3716 6 37.9262 6 35.6033V12.3749C6 10.0539 8.53126 8.61222 10.5263 9.7952Z" fill="white"/>
</svg>
